<svg height="512pt" viewBox="-161 0 512 512.00493" width="512pt" xmlns="http://www.w3.org/2000/svg"><path d="m139.074219 63.351562c-3.285157 0-6.289063-1.859374-7.761719-4.800781-1.46875-2.9375-1.152344-6.457031.820312-9.085937l34.488282-45.992188c2.875-3.835937 8.3125-4.613281 12.148437-1.738281 3.832031 2.878906 4.609375 8.316406 1.734375 12.152344l-34.476562 45.992187c-1.640625 2.1875-4.21875 3.472656-6.953125 3.472656zm0 0" fill="#90bae1"/><path d="m190.917969 459.933594v23.34375c.011719 6.777344-4.328125 12.796875-10.761719 14.925781-7.476562 2.632813-14.753906 5.792969-21.78125 9.457031-6.082031 2.949219-12.765625 4.4375-19.523438 4.339844h-86.78125c-6.757812.097656-13.445312-1.390625-19.527343-4.339844-7.023438-3.664062-14.304688-6.824218-21.78125-9.457031-6.433594-2.128906-10.7734378-8.148437-10.75781275-14.925781v-23.34375c30.73437475 11.195312 61.49218775-13.390625 92.24609375-13.019532 32.898438.410157 65.796875 24.996094 98.667969 13.019532zm0 0" fill="#bdc3c7"/><path d="m190.917969 95.457031c-32.871094 5.960938-65.769531 30.539063-98.667969 30.375-30.753906-.21875-61.511719-24.792969-92.24609375-30.375 0-14.144531 11.45312475-22.476562 15.79296875-39.050781 2.179687-7.796875 9.34375-13.144531 17.441406-13.015625h124.441407c8.097656-.128906 15.265624 5.21875 17.445312 13.015625 4.335938 16.574219 15.792969 24.992188 15.792969 39.050781zm0 0" fill="#bdc3c7"/><path d="m190.917969 95.457031v364.476563c-61.53125 23.167968-129.386719 23.167968-190.91406275 0v-364.476563c63.11328175 11.542969 127.79687475 11.542969 190.91406275 0zm0 0" fill="#24ae5f"/><path d="m100.414062 211.046875 14.023438 22.902344c.757812 1.269531 1.972656 2.199219 3.394531 2.605469l25.445313 7.089843c1.863281.519531 3.347656 1.933594 3.953125 3.773438.609375 1.839843.261719 3.859375-.925781 5.390625l-16.886719 21.824218c-.855469 1.101563-1.285157 2.476563-1.207031 3.871094l1.464843 27.769532c.109375 1.984374-.808593 3.890624-2.425781 5.046874-1.621094 1.15625-3.722656 1.402344-5.566406.652344l-24.027344-9.8125c-1.40625-.574218-2.984375-.574218-4.390625 0l-24.03125 9.8125c-1.84375.75-3.941406.503906-5.5625-.652344s-2.535156-3.0625-2.429687-5.046874l1.46875-27.769532c.074218-1.394531-.355469-2.769531-1.207032-3.871094l-16.886718-21.824218c-1.1875-1.53125-1.535157-3.550782-.929688-5.390625.609375-1.839844 2.09375-3.253907 3.957031-3.773438l25.445313-7.089843c1.421875-.40625 2.632812-1.335938 3.390625-2.605469l14.023437-22.902344c1.054688-1.726563 2.933594-2.777344 4.957032-2.777344 2.023437 0 3.898437 1.050781 4.953124 2.777344zm0 0" fill="#f0c419"/><g fill="#7ed09e"><path d="m156.207031 364.476562h-121.492187c-4.792969 0-8.679688-3.886718-8.679688-8.679687s3.886719-8.675781 8.679688-8.675781h121.492187c4.792969 0 8.675781 3.882812 8.675781 8.675781s-3.882812 8.679687-8.675781 8.679687zm0 0"/><path d="m138.851562 399.1875h-86.78125c-4.792968 0-8.679687-3.886719-8.679687-8.679688 0-4.792968 3.886719-8.675781 8.679687-8.675781h86.78125c4.792969 0 8.675782 3.882813 8.675782 8.675781 0 4.792969-3.882813 8.679688-8.675782 8.679688zm0 0"/></g></svg>