<svg id="Capa_1" enable-background="new 0 0 510.579 510.579" height="512" viewBox="0 0 510.579 510.579" width="512" xmlns="http://www.w3.org/2000/svg"><g><g><g id="XMLID_194_"><g><path d="m381.463 254.874-248.5-41.75 12.67-31.63 18.9-36.37c3.44-6.62 10.39-10.67 17.85-10.38 32.26 1.29 121.06 8.15 182.35 44.85 14.23 8.51 22.85 23.96 22.85 40.54z" fill="#678d98"/></g></g><path d="m340.754 320.232c0 20.085-13.426 37.641-32.771 43.042-27.313 7.626-57.079 12.57-88.356 12.57-14.789 0-29.24-1.106-43.26-3.079-8.593-1.209-14.965-8.594-14.965-17.272v-15.776l1.829-48.443 181.308-11.795z" fill="#678d98"/><g id="XMLID_193_"><g><path d="m433.433 251.874v22.79l-20.63 7.36c-39.27 25.79-111.08 63.82-193.18 63.82-90.12 0-167.86-45.83-203.75-70.99-11.16-7.83-11.16-24.34 0-32.16 35.89-25.17 113.63-71 203.75-71 82.1 0 153.91 38.03 193.18 63.82z" fill="#deecf1"/></g></g><path d="m242.805 316.869c-90.12 0-167.86-45.83-203.75-70.99-4.709-3.304-7.423-8.154-8.158-13.244-5.599 3.581-10.627 6.976-15.024 10.06-11.16 7.82-11.16 24.33 0 32.16 35.89 25.16 113.63 70.99 203.75 70.99 82.1 0 153.91-38.03 193.18-63.82l20.63-7.36v-19.959c-39.776 25.729-110.262 62.163-190.628 62.163z" fill="#cbe5e8"/><g><path d="m433.433 251.874v22.79l-15.21 5.43-13.27-10.53c-39.27-25.79-111.08-63.82-193.18-63.82-29.07 0-56.85 4.77-82.35 12.08-1.69-8.63-4.03-17.13-7.05-25.48l-1.85-3.32c29.89-10.19 63.53-17.33 99.1-17.33 82.1 0 153.91 38.03 193.18 63.82z" fill="#a8d3d8"/></g><g id="XMLID_197_"><g><g id="XMLID_198_"><g><path d="m129.423 217.824c6.8 34.41 3.48 70.97-7.05 109.06l-.67 2.03c-46.4-15.63-83.92-38.7-105.83-54.06-.84-.59-1.61-1.22-2.32-1.92-8.78-8.33-8-23.01 2.32-30.24 21.73-15.24 58.79-38.04 104.65-53.67l1.85 3.32c3.02 8.35 5.36 16.85 7.05 25.48z" fill="#a8d3d8"/></g></g></g></g><path d="m39.055 245.879c-4.708-3.303-7.422-8.153-8.157-13.242-.124.079-.248.158-.371.237-.79.506-1.568 1.009-2.335 1.507-.182.119-.367.238-.548.356-1.92 1.252-3.767 2.478-5.536 3.671-.155.104-.304.207-.458.311-.695.47-1.379.935-2.05 1.395-1.285.88-2.533 1.744-3.726 2.581-10.32 7.23-11.1 21.91-2.32 30.24.71.7 1.48 1.33 2.32 1.92 21.91 15.36 59.43 38.43 105.83 54.06l.67-2.03c3.029-10.956 5.457-21.785 7.224-32.473-39.345-15.193-71.092-34.898-90.543-48.533z" fill="#8ebac5"/><path d="m233.791 289.25-52.524-30.896c-4.051-2.383-4.114-8.219-.116-10.69l52.371-32.353c9.665-5.971 22.131.981 22.131 12.342v49.094c0 11.219-12.191 18.192-21.862 12.503z" fill="#8ebac5"/><g id="XMLID_195_"><g><path d="m503.543 342.324c.22 1.72-1.11 3.25-2.85 3.26l-3.44.02c-48.09.29-87.31-38.47-87.59-86.56 0-.18 0-.36 0-.54 0-47.83 38.64-86.76 86.55-87.05l3.45-.02c1.73-.01 3.09 1.49 2.89 3.21l-9.45 85.01z" fill="#deecf1"/></g></g><g id="XMLID_196_"><g><path d="m503.543 342.324c.22 1.72-1.11 3.25-2.85 3.26l-3.44.02c-8.96.05-17.61-1.25-25.76-3.72l-8.39-79.93c-.14-1.35-.14-2.72 0-4.07l8.42-80.45.19-2.33c7.76-2.33 15.98-3.6 24.5-3.65l3.45-.02c1.73-.01 3.09 1.49 2.89 3.21l-9.45 85.01z" fill="#678d98"/></g></g></g><g><path d="m251.864 208.432c-7.066-3.941-15.397-3.756-22.283.498l-52.371 32.353c-4.135 2.554-6.571 6.98-6.52 11.839.053 4.859 2.585 9.231 6.773 11.695l52.524 30.896c3.484 2.05 7.318 3.076 11.155 3.076 3.748 0 7.5-.979 10.929-2.941 6.938-3.968 11.081-11.11 11.081-19.103v-49.094c.001-8.092-4.218-15.277-11.288-19.219zm-3.711 68.314c0 3.668-2.468 5.476-3.528 6.083-1.062.607-3.872 1.816-7.031-.043l-50.725-29.838 50.596-31.256c3.158-1.951 6.014-.761 7.094-.158 1.081.603 3.595 2.405 3.595 6.119v49.093z"/><circle cx="92.968" cy="240.834" r="11.04"/><path d="m500.652 259.863 9.856-84.067c.345-2.944-.588-5.902-2.559-8.116-1.97-2.214-4.8-3.484-7.764-3.484h-3.451c-39.888 0-74.086 24.821-87.963 59.829-4.371-2.739-9.001-5.538-13.884-8.36-1.439-17.485-11.235-33.49-26.299-42.51-62.188-37.233-150.731-44.503-185.913-45.901-10.287-.395-20.036 5.247-24.798 14.411l-17.342 33.377c-56.191 15.103-102.182 42.725-128.97 61.507-7.242 5.076-11.565 13.382-11.565 22.22s4.323 17.146 11.564 22.222c28.885 20.251 80.088 50.784 142.337 64.815v9.688c0 12.362 9.209 22.98 21.421 24.699 14.861 2.092 29.768 3.152 44.305 3.152 29.437 0 59.842-4.322 90.373-12.847 20.898-5.835 35.939-24.051 38.001-45.266 24.332-10.335 45.059-21.9 60.77-31.719 10.525 26.555 32.744 47.245 60.269 55.691.225.079.455.147.688.205 8.562 2.556 17.625 3.935 27.007 3.935h3.441c2.971 0 5.804-1.274 7.775-3.497 1.971-2.222 2.897-5.188 2.543-8.137zm-194.685 96.188c-29.219 8.158-58.268 12.294-86.34 12.294-13.84 0-28.043-1.011-42.215-3.006-4.852-.683-8.511-4.915-8.511-9.845v-6.68c16.311 2.87 33.28 4.532 50.726 4.532 40.625 0 78.837-9.207 111.728-21.474-3.841 11.509-13.222 20.782-25.388 24.179zm-86.34-17.706c-31.555 0-61.55-5.726-88.74-14.264 1.222-4.677 2.34-9.348 3.332-13.938.876-4.048-1.695-8.041-5.744-8.917-4.047-.871-8.041 1.697-8.916 5.745-.876 4.05-1.86 8.168-2.925 12.297-21.586-7.798-41.106-17.157-57.863-26.445h13.236c4.143 0 7.5-3.358 7.5-7.5s-3.357-7.5-7.5-7.5h-38.282c-4.952-3.196-9.48-6.261-13.549-9.113-3.289-2.306-5.176-5.929-5.176-9.94s1.887-7.633 5.176-9.939c21.242-14.893 54.997-35.561 96.323-50.51 2.879 8.537 5.063 17.279 6.552 26.286.027.281.072.562.132.843 2.556 15.95 2.97 32.729 1.245 50.682-.396 4.123 2.626 7.787 6.749 8.183.244.023.485.035.726.035 3.819 0 7.084-2.904 7.457-6.784 1.606-16.724 1.408-32.86-.545-48.301 15.897-4.577 31.758-7.879 47.236-9.815 4.11-.514 7.025-4.263 6.512-8.373-.515-4.11-4.271-7.025-8.373-6.511-15.704 1.964-31.762 5.264-47.846 9.808-1.479-7.126-3.36-14.082-5.638-20.859 27.238-8.569 57.296-14.322 88.921-14.322 3.314 0 6.82.083 11.033.26 4.133.194 7.635-3.038 7.81-7.177.175-4.138-3.039-7.635-7.177-7.809-4.429-.187-8.136-.274-11.666-.274-20.709 0-40.747 2.341-59.808 6.268l11.37-21.882c2.095-4.03 6.368-6.522 10.892-6.338 34.032 1.352 119.58 8.324 178.804 43.783 7.729 4.627 13.532 11.807 16.635 20.113-31.208-16.227-70.002-31.628-113.218-38.387-4.096-.637-7.929 2.16-8.569 6.251-.64 4.092 2.159 7.929 6.251 8.569 58.683 9.177 109.07 35.105 142.279 56.349-1.328 6.191-2.048 12.604-2.094 19.175-27.542-16.582-66.55-36.049-111.742-47.011-4.023-.978-8.08 1.496-9.057 5.521-.976 4.025 1.496 8.08 5.521 9.057 48.857 11.851 90.315 34.126 117.002 51.149.117.605.24 1.208.369 1.808-36.906 23.574-106.297 59.727-184.635 59.727zm266.026-77.575 9.326 77.556c-5.679-.123-11.207-.86-16.535-2.119l-3.149-29.977c-.434-4.119-4.125-7.11-8.242-6.675-4.12.433-7.108 4.123-6.676 8.243l2.407 22.911c-26.938-12.765-45.624-40.202-45.624-71.939 0-31.825 18.792-59.327 45.852-72.045l-7.368 70.372c-.197 1.873-.197 3.772 0 5.643l1.376 13.095c.405 3.853 3.659 6.717 7.45 6.717.262 0 .526-.014.793-.042 4.119-.433 7.107-4.124 6.675-8.243l-1.376-13.096c-.088-.831-.088-1.673 0-2.508l8.102-77.384c5.269-1.229 10.732-1.945 16.341-2.065l-9.354 79.787c-.069.588-.068 1.181.002 1.769z"/></g></g></svg>