<svg height="512pt" viewBox="0 0 512 512.06596" width="512pt" xmlns="http://www.w3.org/2000/svg"><path d="m30.207031 17.132812h-.308593c-6.359376-.089843-12.453126 2.554688-16.734376 7.261719-2.664062 2.898438-3.9375 6.8125-3.488281 10.726563.769531 4.710937 3.507813 8.871094 7.527344 11.441406 10.828125 7.570312 21.1875 15.792969 31.007813 24.628906 3.605468-4.148437 6.523437-8.84375 8.652343-13.910156l.386719-.851562c-3.023438-22.390626-7.824219-29.867188-9.804688-32.070313-4.46875-4.734375-10.730468-7.359375-17.238281-7.226563zm0 0" fill="#2e7d32"/><path d="m503.5 204.867188v264.53125c-.144531 18.992187-15.65625 34.269531-34.644531 34.132812h-67.753907v-5.972656c18.808594-8.277344 32.910157-24.566406 38.398438-44.371094l12.03125-43.523438c9.488281.054688 17.234375-7.578124 17.324219-17.066406v-34.132812c-.089844-9.488282-7.835938-17.117188-17.324219-17.066406h-50.429688v-3.667969c5.960938-11.578125 15.765626-20.71875 27.730469-25.855469 12.285157-5.351562 21.304688-16.207031 24.316407-29.261719 3.011718-13.058593-.339844-26.765625-9.039063-36.957031-10.246094-11.9375-26.132813-17.421875-41.558594-14.335938v.253907c-1.246093.25-2.472656.59375-3.667969 1.023437h-.085937c-8.042969 2.746094-15.105469 7.789063-20.3125 14.507813-4.273437 5.527343-7.089844 12.042969-8.191406 18.945312-2.121094 14.109375-9.648438 26.839844-20.992188 35.496094-16.246093 12.089844-33.136719 23.285156-50.601562 33.539063v-130.21875zm0 0" fill="#4e342e"/><path d="m477.898438 204.867188v264.53125c-.144532 18.992187-15.652344 34.269531-34.644532 34.132812h-67.753906v-5.972656c18.8125-8.277344 32.910156-24.566406 38.398438-44.371094l12.035156-43.523438c9.488281.054688 17.230468-7.578124 17.320312-17.066406v-34.132812c-.089844-9.488282-7.832031-17.117188-17.320312-17.066406h-50.433594v-3.667969c5.960938-11.578125 15.765625-20.71875 27.734375-25.855469 12.28125-5.351562 21.304687-16.207031 24.316406-29.261719 3.011719-13.058593-.34375-26.765625-9.042969-36.957031-5.234374-6.058594-12.019531-10.570312-19.625-13.058594h-.085937c-7.050781-2.292968-14.574219-2.730468-21.847656-1.277344v.253907c-9.570313 2.25-18.070313 7.738281-24.0625 15.53125-4.277344 5.527343-7.09375 12.042969-8.191407 18.945312-2.121093 14.109375-9.652343 26.839844-20.992187 35.496094-8.109375 6.230469-16.726563 12.117187-25.003906 17.582031v-114.261718zm0 0" fill="#795548"/><path d="m366.964844 65.011719h68.269531v52.148437h-68.269531zm0 0" fill="#00695c"/><path d="m443.765625 25.664062v51.203126h-85.332031v-51.203126c.027344-9.410156 7.652344-17.035156 17.066406-17.066406h51.199219c9.414062.03125 17.039062 7.65625 17.066406 17.066406zm0 0" fill="#4e342e"/><path d="m418.167969 25.664062v51.203126h-59.734375v-51.203126c.027344-9.410156 7.652344-17.035156 17.066406-17.066406h25.601562c9.410157.03125 17.035157 7.65625 17.066407 17.066406zm0 0" fill="#795548"/><path d="m468.855469 111h-136.023438c-18.851562 0-34.132812 15.28125-34.132812 34.132812v59.734376h204.800781v-59.734376c-.144531-18.992187-15.65625-34.269531-34.644531-34.132812zm0 0" fill="#00695c"/><path d="m447.589844 111h-119.023438c-17.636718 1.25-30.96875 16.484375-29.867187 34.132812v59.734376h179.199219v-59.734376c.972656-17.765624-12.550782-33-30.308594-34.132812zm0 0" fill="#009688"/><path d="m400.84375 341.230469c.480469-1.207031 1.050781-2.378907 1.707031-3.5v3.667969h-1.792969c.085938-.085938.085938-.085938.085938-.167969zm0 0" fill="#7f5b53"/><path d="m374.5625 503.53125c9.644531.007812 19.183594-2.027344 27.988281-5.972656v5.972656zm0 0" fill="#7f5b53"/><path d="m196.300781 341.398438h256c9.425781 0 17.066407 7.640624 17.066407 17.066406v34.132812c0 9.425782-7.640626 17.066406-17.066407 17.066406h-256c-9.425781 0-17.066406-7.640624-17.066406-17.066406v-34.132812c0-9.425782 7.640625-17.066406 17.066406-17.066406zm0 0" fill="#6a1b9a"/><path d="m196.300781 341.398438h230.398438c9.425781 0 17.066406 7.640624 17.066406 17.066406v34.132812c0 9.425782-7.640625 17.066406-17.066406 17.066406h-230.398438c-9.425781 0-17.066406-7.640624-17.066406-17.066406v-34.132812c0-9.425782 7.640625-17.066406 17.066406-17.066406zm0 0" fill="#9d27b0"/><path d="m452.300781 409.664062-11.878906 43.523438c-8.085937 29.714844-35.0625 50.339844-65.859375 50.34375h-100.523438c-30.796874-.003906-57.777343-20.628906-65.859374-50.34375l-11.878907-43.523438zm0 0" fill="#6a1b9a"/><path d="m426.699219 409.664062-10.691407 43.523438c-5.761718 28.457031-30.265624 49.265625-59.28125 50.34375h-90.453124c-29.015626-1.078125-53.515626-21.886719-59.273438-50.34375l-10.699219-43.523438zm0 0" fill="#9d27b0"/><path d="m450.59375 291.90625c-4.292969 8.929688-11.652344 16.015625-20.738281 19.96875-13.070313 5.710938-23.453125 16.21875-29.011719 29.355469 0 .082031 0 .082031-.085938.167969h-112.980468c21.328125-11.972657 41.878906-25.28125 61.523437-39.851563 11.34375-8.65625 18.871094-21.386719 20.992188-35.496094 2.492187-15.308593 13.171875-28.019531 27.820312-33.109375 16.335938-5.796875 34.554688-1.121094 46.078125 11.824219 11.523438 12.949219 14.054688 31.589844 6.402344 47.140625zm0 0" fill="#ad1457"/><path d="m422.347656 291.90625c-4.339844 8.894531-11.683594 15.964844-20.734375 19.96875-13.09375 5.707031-23.507812 16.210938-29.101562 29.355469v.167969h-84.734375c21.328125-11.972657 41.878906-25.28125 61.523437-39.851563 11.34375-8.65625 18.871094-21.386719 20.992188-35.496094 2.492187-15.308593 13.171875-28.019531 27.820312-33.109375 11.542969 3.964844 20.820313 12.707032 25.460938 23.996094s4.191406 24.03125-1.226563 34.96875zm0 0" fill="#e91e63"/><path d="m202.527344 228.589844c-.339844 4.4375-.765625 8.363281-1.109375 11.6875-.304688 2.382812-1.625 4.519531-3.621094 5.859375-1.992187 1.339843-4.464844 1.753906-6.789063 1.140625-.785156-.1875-1.535156-.503906-2.21875-.9375-3.921874-2.296875-7.96875-4.375-12.117187-6.230469-15.671875-6.976563-32.457031-11.105469-49.578125-12.203125-5.886719-.511719-11.605469-.855469-17.152344-1.195312-20.648437-1.109376-39.765625-2.21875-58.453125-13.3125-2.023437-1.179688-3.992187-2.460938-5.886719-3.839844-5.640624-3.929688-10.796874-8.511719-15.359374-13.652344-11.257813-12.636719-18.453126-28.363281-20.652344-45.140625-.691406-4.691406-1.035156-9.425781-1.023438-14.167969-.054687-6.65625.660156-13.300781 2.132813-19.796875 2.347656-14.566406 10.789062-27.449219 23.210937-35.414062 4.367188-2.40625 8.410156-5.359375 12.03125-8.789063 4.238282-3.871094 7.710938-8.5 10.242188-13.652344.425781-.851562.851562-1.707031 1.195312-2.558593 6.1875-16.03125 17.574219-29.523438 32.339844-38.316407 11.953125-6.5 25.394531-9.765624 38.996094-9.472656 1.964844 0 3.925781.085938 5.804687.257813 9.328125.824219 18.261719 4.15625 25.855469 9.640625 11.296875 8.78125 20.046875 20.417968 25.34375 33.707031 2.589844 5.773437 4.8125 11.699219 6.65625 17.75 7.082031 25.484375 11.0625 51.730469 11.859375 78.167969.257813 5.800781.429687 11.605468.511719 17.320312.34375 24.578125-.851563 47.105469-2.21875 63.148438zm0 0" fill="#2e7d32"/><path d="m176.929688 237.121094c-.085938 1.023437-.171876 2.050781-.257813 2.988281-15.671875-6.976563-32.457031-11.105469-49.578125-12.203125-5.886719-.511719-11.605469-.855469-17.152344-1.195312-20.648437-1.109376-39.765625-2.21875-58.453125-13.3125-2.023437-1.179688-3.992187-2.460938-5.886719-3.839844-5.640624-3.929688-10.796874-8.511719-15.359374-13.652344-11.257813-12.636719-18.453126-28.363281-20.652344-45.140625-.691406-4.691406-1.035156-9.425781-1.023438-14.167969-.054687-6.65625.660156-13.300781 2.132813-19.796875 2.347656-14.566406 10.789062-27.449219 23.210937-35.414062 4.367188-2.40625 8.410156-5.359375 12.03125-8.789063 4.238282-3.871094 7.710938-8.5 10.242188-13.652344.425781-.851562.851562-1.707031 1.195312-2.558593 6.1875-16.03125 17.574219-29.523438 32.339844-38.316407 4.4375-.628906 8.914062-.945312 13.398438-.9375 1.960937 0 3.921874.085938 5.800781.253907 9.332031.828125 18.265625 4.160156 25.855469 9.644531 11.300781 8.777344 20.050781 20.414062 25.34375 33.707031 2.589843 5.769531 4.816406 11.699219 6.65625 17.75 7.082031 25.484375 11.066406 51.726563 11.863281 78.164063.253906 5.804687.425781 11.605468.511719 17.324218.339843 24.574219-.855469 47.101563-2.21875 63.144532zm0 0" fill="#4caf50"/><path d="m469.367188 102.464844h-25.601563v-17.066406c4.714844 0 8.535156-3.820313 8.535156-8.53125v-51.203126c0-14.136718-11.460937-25.5976558-25.601562-25.5976558h-51.199219c-14.140625 0-25.601562 11.4609378-25.601562 25.5976558v51.203126c0 4.710937 3.820312 8.53125 8.535156 8.53125v17.066406h-25.601563c-23.550781.03125-42.636719 19.117187-42.664062 42.667968v185.035157l-4.6875 2.699219h-89.179688c-14.140625 0-25.601562 11.460937-25.601562 25.597656v34.132812c.046875 11.472656 7.71875 21.511719 18.773437 24.570313l10.445313 38.296875c9.164062 33.390625 39.496093 56.550781 74.121093 56.601562h195.328126c23.550781-.027344 42.636718-19.113281 42.664062-42.667968v-324.265626c-.027344-23.550781-19.113281-42.636718-42.664062-42.667968zm-102.402344-76.800782c0-4.710937 3.820312-8.53125 8.535156-8.53125h51.199219c4.714843 0 8.535156 3.820313 8.535156 8.53125v42.667969h-68.269531zm8.535156 59.734376h51.199219v17.066406h-51.199219zm-42.667969 34.132812h136.535157c14.136718 0 25.597656 11.460938 25.597656 25.601562v51.199219h-187.730469v-51.199219c0-14.140624 11.460937-25.601562 25.597656-25.601562zm2.792969 202.300781 1.882812-1.296875c2.21875-1.511718 4.421876-3.046875 6.632813-4.617187l2.105469-1.492188c2.78125-2.003906 5.546875-4.027343 8.261718-6.09375 13.066407-10.011719 21.753907-24.6875 24.242188-40.960937.867188-5.492188 3.109375-10.675782 6.519531-15.066406 10.675781-13.949219 30.191407-17.515626 45.109375-8.253907 14.921875 9.265625 20.375 28.339844 12.609375 44.09375-3.464843 7.105469-9.324219 12.761719-16.542969 15.980469-3.058593 1.375-6.007812 2.980469-8.824218 4.796875-.402344.253906-.855469.496094-1.222656.757813-2.570313 1.730468-5.011719 3.640624-7.3125 5.71875-.46875.425781-.9375.851562-1.390626 1.289062-2.1875 2.078125-4.226562 4.3125-6.101562 6.679688-.375.488281-.714844.992187-1.082031 1.484374-1.871094 2.492188-3.554688 5.117188-5.035157 7.859376l-.109374.15625h-76.664063l.535156-.34375c5.230469-3.292969 10.761719-6.886719 16.386719-10.691407zm-147.859375 36.632813c0-4.710938 3.820313-8.53125 8.535156-8.53125h256c4.710938 0 8.53125 3.820312 8.53125 8.53125v34.132812c0 4.714844-3.820312 8.535156-8.53125 8.535156h-256c-4.714843 0-8.535156-3.820312-8.535156-8.535156zm28.648437 92.519531-8.945312-32.785156h233.660156l-1.5625 5.726562-7.378906 27.058594c-7.089844 25.984375-30.691406 44.015625-57.625 44.015625h-100.523438c-26.921874-.046875-50.5-18.054688-57.625-44.015625zm252.953126 44.015625h-46.601563c.238281-.195312.433594-.445312.675781-.640625 2.675782-2.199219 5.203125-4.574219 7.558594-7.117187.316406-.332032.597656-.691407.90625-1.03125 2.375-2.648438 4.566406-5.460938 6.550781-8.414063.199219-.308594.378907-.625.574219-.929687 2.019531-3.097657 3.816406-6.339844 5.367188-9.695313.101562-.214844.171874-.433594.273437-.648437 1.597656-3.558594 2.917969-7.230469 3.957031-10.992188v-.058594l10.410156-38.179687c.734376-.203125 1.417969-.511719 2.117188-.773438.46875-.171875.949219-.308593 1.402344-.511719 1.394531-.605468 2.734375-1.335937 4-2.175781l.171875-.136719c1.1875-.824218 2.308593-1.746093 3.34375-2.757812.359375-.351562.664062-.734375 1.007812-1.109375.699219-.746094 1.351563-1.535156 1.953125-2.363281.332032-.46875.632813-.949219.9375-1.433594.515625-.828125.980469-1.683594 1.402344-2.558594.246094-.523437.484375-1.042968.699219-1.582031.375-.984375.6875-1.996094.9375-3.019531.128906-.496094.28125-.972656.375-1.476563.324219-1.578125.496093-3.183593.511719-4.796875v-34.132812c0-14.136719-11.460938-25.597656-25.597657-25.597656h-36.25c.648438-.769532 1.210938-1.597657 1.910157-2.324219.316406-.339844.613281-.6875.949218-1.011719 1.847656-1.8125 3.847656-3.464844 5.972656-4.941406.453126-.324219.921876-.625 1.382813-.921875 2.257813-1.515625 4.636719-2.84375 7.117187-3.96875 10.863282-4.804688 19.675782-13.296875 24.890626-23.96875 8.984374-18.257813 6.304687-40.101563-6.828126-55.648438-10.105468-11.796875-24.957031-18.453125-40.488281-18.148437-15.40625.378906-29.816406 7.703125-39.203125 19.925781-5.128906 6.65625-8.511718 14.492187-9.847656 22.792969-1.8125 11.9375-8.164062 22.710937-17.734375 30.078125-2.960937 2.253906-5.972656 4.464843-9.027344 6.640625-1.246093.851562-2.5 1.703125-3.753906 2.617187-1.792969 1.246094-3.582031 2.507813-5.375 3.722657-1.511719 1.03125-3.003906 2.003906-4.507813 2.992187-1.5.992187-3.046874 2.03125-4.546874 3.003906-1.5.972657-3.0625 1.964844-4.582032 2.929688-1.355468.851562-2.738281 1.707031-4.054687 2.558593l-1.089844.699219v-106.496093h187.730469v256c0 14.140624-11.460938 25.601562-25.597656 25.601562zm0 0"/><path d="m124.832031 477.933594h-8.53125v-8.535156c0-4.710938-3.820312-8.53125-8.535156-8.53125-4.710937 0-8.53125 3.820312-8.53125 8.53125v8.535156h-8.535156c-4.710938 0-8.53125 3.820312-8.53125 8.53125 0 4.714844 3.820312 8.535156 8.53125 8.535156h8.535156v8.53125c0 4.714844 3.820313 8.535156 8.53125 8.535156 4.714844 0 8.535156-3.820312 8.535156-8.535156v-8.53125h8.53125c4.714844 0 8.535157-3.820312 8.535157-8.535156 0-4.710938-3.820313-8.53125-8.535157-8.53125zm0 0"/><path d="m42.699219 307.265625h-8.53125v-8.53125c0-4.714844-3.820313-8.535156-8.535157-8.535156-4.710937 0-8.53125 3.820312-8.53125 8.535156v8.53125h-8.535156c-4.714844 0-8.535156 3.820313-8.535156 8.535156 0 4.710938 3.820312 8.53125 8.535156 8.53125h8.535156v8.535157c0 4.710937 3.820313 8.53125 8.53125 8.53125 4.714844 0 8.535157-3.820313 8.535157-8.53125v-8.535157h8.53125c4.714843 0 8.535156-3.820312 8.535156-8.53125 0-4.714843-3.820313-8.535156-8.535156-8.535156zm0 0"/><path d="m264.566406 76.867188c4.710938 0 8.535156-3.820313 8.535156-8.535157v-8.53125h8.53125c4.714844 0 8.535157-3.820312 8.535157-8.535156 0-4.710937-3.820313-8.53125-8.535157-8.53125h-8.53125v-8.535156c0-4.710938-3.824218-8.535157-8.535156-8.535157-4.714844 0-8.535156 3.824219-8.535156 8.535157v8.535156h-8.53125c-4.714844 0-8.535156 3.820313-8.535156 8.53125 0 4.714844 3.820312 8.535156 8.535156 8.535156h8.53125v8.53125c0 4.714844 3.820312 8.535157 8.535156 8.535157zm0 0"/><path d="m.886719 150.449219c3.371093 29.429687 20.515625 55.507812 46.199219 70.273437 20.566406 12.277344 41.046874 13.394532 62.71875 14.582032 23.324218 1.28125 47.429687 2.558593 74.710937 18.433593 2.636719 1.527344 5.628906 2.332031 8.679687 2.328125 2.667969-.007812 5.296876-.636718 7.679688-1.84375 5.027344-2.539062 8.425781-7.453125 9.019531-13.054687 2.933594-27.207031 15.109375-165.617188-33.230469-219.453125-11.988281-13.945313-29.53125-21.875-47.921874-21.6484378-25.863282-1.0507812-50.632813 10.4804688-66.484376 30.9414058-1.40625-4.328124-3.632812-8.347656-6.554687-11.835937-6.296875-6.835937-15.195313-10.679687-24.488281-10.574219h-.417969c-9.265625-.011718-18.085937 3.964844-24.210937 10.914063-4.957032 5.644531-7.265626 13.136719-6.347657 20.59375 1.140625 8 5.597657 15.148437 12.277344 19.695312 6.109375 4.316407 11.96875 8.96875 17.5625 13.933594-.117187.066406-.210937.152344-.339844.222656-18.613281 10.433594-29.707031 33.851563-29.707031 62.640625.0039062 4.566406.289062 9.125.855469 13.65625zm17.28125-.351563c13.257812-39.679687 57.898437-41.914062 69.757812-41.742187 7.679688 6.824219 16.007813 14.503906 24.414063 23.039062-29.730469 4.964844-67.234375 20.972657-76.175782 58.214844-9.671874-11.164063-15.910156-24.882813-17.964843-39.511719zm33.390625 53.0625c2.96875-47.453125 59.917968-55.144531 75.484375-56.320312 8.570312 9.453125 16.632812 19.359375 24.148437 29.667968-11.074218 1.882813-21.351562 6.980469-29.550781 14.664063-7.152344 7.292969-11.554687 16.84375-12.457031 27.023437-19.6875-1.09375-36.8125-2.261718-53.324219-12.101562-1.519531-.929688-2.867187-1.980469-4.300781-2.933594zm133.828125-127.148437c5.996093 22.949219 9.429687 46.492187 10.238281 70.195312-6.285156-.617187-12.613281.722657-18.105469 3.839844-5.808593 3.582031-10.507812 8.703125-13.585937 14.789063-7.707032-10.46875-15.941406-20.539063-24.679688-30.164063.207032-12.894531 3.660156-40.355469 18.664063-52.703125 7.832031-5.933594 17.882812-8.113281 27.46875-5.957031zm-3.59375 157.015625c-17.539063-7.996094-36.410157-12.667969-55.65625-13.773438.640625-6.03125 3.285156-11.675781 7.511719-16.027344 7.871093-6.75 17.796874-10.628906 28.160156-11.007812 8.179687 12.804688 14.882812 26.496094 19.984375 40.808594zm-6.246094-51.203125c1.367187-6.773438 5.125-12.832031 10.589844-17.066407 3.082031-1.648437 6.664062-2.121093 10.070312-1.328124.355469 21.597656-.539062 41.230468-1.503906 55.335937-5.261719-12.863281-11.671875-25.226563-19.15625-36.941406zm3.601563-123.628907c-11.628907-.542968-23.050782 3.21875-32.078126 10.574219-15.300781 12.601563-21.195312 33.695313-23.476562 49.378907-8.011719-8.019532-15.886719-15.359376-23.292969-21.902344 1.550781-14.21875 10.445313-61.109375 58.699219-67.953125 1.761719 1.507812 3.425781 3.125 4.984375 4.839843 6.398437 7.460938 11.523437 15.929688 15.164063 25.0625zm-50.40625-41.0625c1.875.003907 3.75.109376 5.613281.316407-26.089844 12.679687-44.457031 37.175781-49.3125 65.773437-9.660157-7.933594-17.597657-13.941406-22.714844-17.664062 1.074219-1.855469 2.027344-3.777344 2.847656-5.757813l.058594-.113281c.214844-.503906.453125-1.023438.675781-1.535156l.367188-.851563c10.171875-25.300781 35.222656-41.410156 62.464844-40.167969zm-111.574219 20.839844c-.304688-2.675781.5625-5.351562 2.378906-7.339844 2.929687-3.21875 7.09375-5.027343 11.445313-4.96875h.222656c4.453125-.097656 8.738281 1.691407 11.800781 4.925782 4.175781 6.574218 6.492187 14.15625 6.707031 21.9375l-.265625.617187c-.785156 1.835938-1.722656 3.601563-2.804687 5.28125-.699219 1.0625-1.445313 2.089844-2.246094 3.082031-.289062.363282-.570312.730469-.851562 1.089844-6.730469-6.027344-13.824219-11.632812-21.242188-16.792968-2.75-1.761719-4.621094-4.609376-5.144531-7.832032zm20.921875 50.839844c3.90625-2.234375 7.589844-4.839844 11-7.773438l.078125-.050781c.324219-.273437.589843-.574219.90625-.855469.484375-.433593.972656-.851562 1.441406-1.320312 3.976563 2.917969 10.1875 7.59375 17.851563 13.78125-18.554688 2.546875-35.875 10.730469-49.628907 23.441406 2.242188-11.160156 8.847657-20.960937 18.351563-27.222656zm0 0"/></svg>