<?xml version="1.0" encoding="UTF-8"?>
<svg xmlns="http://www.w3.org/2000/svg" xmlns:xlink="http://www.w3.org/1999/xlink" width="512" height="512" viewBox="0 0 48 60" version="1.1"><!-- Generator: Sketch 51.3 (57544) - http://www.bohemiancoding.com/sketch --><title>085 - Ink Cartrage</title><desc>Created with Sketch.</desc><defs/><g id="Page-1" stroke="none" stroke-width="1" fill="none" fill-rule="evenodd"><g id="085---Ink-Cartrage" transform="translate(-1.000000, 0.000000)" fill-rule="nonzero"><path d="M46,1 L42.17,1 C43.2258336,1.05077006 44.0429747,1.94382039 44,3 L44,19 L42.17,21 L46,21 L47.71,19.29 C47.8939319,19.1032 47.9979397,18.8521467 48,18.59 L48,3 C47.9967052,1.89679813 47.1032019,1.0032948 46,1 Z" id="Shape" fill="#0377BC"/><path d="M4,1 L3.83,1 C2.99743387,1.02122969 2.28331745,1.59991024 2.09,2.41 C2.3486959,1.5720904 3.1230645,1.00043609 4,1 Z M2,18.59 L2,19 L3.83,21 L4,21 L2.29,19.29 C2.10606812,19.1032 2.00206033,18.8521467 2,18.59 Z" id="Shape" fill="#02A9F4"/><path d="M42.17,1 L4,1 C3.1230645,1.00043609 2.3486959,1.5720904 2.09,2.41 C2.062867,2.47010634 2.04596766,2.53432383 2.04,2.6 C2.01136355,2.73135697 1.99794189,2.86557357 2,3 L2,18.59 C2.00206033,18.8521467 2.10606812,19.1032 2.29,19.29 L4,21 L42.17,21 L44,19 L44,3 C44.0429747,1.94382039 43.2258336,1.05077006 42.17,1 Z M31,8.26 C30.9994483,9.22074686 30.2207469,9.99944832 29.26,10 L20.74,10 C19.7792531,9.99944832 19.0005517,9.22074686 19,8.26 L19,8.25 C19.0040212,7.5024446 19.4819353,6.83979068 20.19,6.6 L24,5.33 L24.45,5.18 C24.8068538,5.0600326 25.1931462,5.0600326 25.55,5.18 L29.81,6.6 C30.5180647,6.83979068 30.9959788,7.5024446 31,8.25 L31,8.26 Z" id="Shape" fill="#02A9F4"/><polygon id="Shape" fill="#00838F" points="48 23 43 33 7 33 2 23 4 21 46 21"/><polygon id="Shape" fill="#00BCD4" points="44 23 39.435 33 6.565 33 2 23 3.826 21 45 21"/><path d="M7,33 L7,59 L2.211,49.422 C2.0722595,49.144406 2.00002109,48.8383343 2,48.528 L2,23 L7,33 Z" id="Shape" fill="#283593"/><rect id="Rectangle-path" fill="#283593" x="7" y="33" width="36" height="26"/><rect id="Rectangle-path" fill="#3F51B5" x="7" y="33" width="33" height="26"/><path d="M48,23 L48,48.528 C47.9999789,48.8383343 47.9277405,49.144406 47.789,49.422 L43,59 L43,33 L48,23 Z" id="Shape" fill="#283593"/><path d="M39,33 L39,51 C39,51.5522847 38.5522847,52 38,52 L24,52 C23.4477153,52 23,51.5522847 23,51 L23,33 L39,33 Z" id="Shape" fill="#545C60"/><path d="M36,33 L36,51 C36,51.5522847 35.5522847,52 35,52 L24,52 C23.4477153,52 23,51.5522847 23,51 L23,33 L36,33 Z" id="Shape" fill="#7F8E94"/><rect id="Rectangle-path" fill="#37474F" x="27" y="42" width="8" height="6" rx="1"/><path d="M29,37 L33,37 C33.5522847,37 34,37.4477153 34,38 L34,42 L28,42 L28,38 C28,37.4477153 28.4477153,37 29,37 Z" id="Shape" fill="#607D8B"/><path d="M17,52 C17,53.1045695 16.1045695,54 15,54 C13.8954305,54 13,53.1045695 13,52 C13,50.9 15,48 15,48 C15,48 17,50.9 17,52 Z" id="Shape" fill="#EF314C"/><path d="M17,42 C17,43.1045695 16.1045695,44 15,44 C13.8954305,44 13,43.1045695 13,42 C13,40.9 15,38 15,38 C15,38 17,40.9 17,42 Z" id="Shape" fill="#02A9F4"/><path d="M12,8 C12,9.65685425 10.6568542,11 9,11 C8.65842344,11.0021256 8.31939584,10.9411006 8,10.82 C6.80191937,10.4003329 5.99979755,9.26945565 5.99979755,8 C5.99979755,6.73054435 6.80191937,5.59966706 8,5.18 C8.31939584,5.05889936 8.65842344,4.99787439 9,5 C10.6568542,5 12,6.34314575 12,8 Z" id="Shape" fill="#00838F"/><ellipse id="Oval" fill="#00BCD4" cx="8" cy="8" rx="2" ry="2.82"/><rect id="Rectangle-path" fill="#FFEB3A" x="37" y="5" width="7" height="10" rx="1"/><path d="M44,6 L44,14 C44,14.5522847 43.5522847,15 43,15 L40,15 C40.5522847,15 41,14.5522847 41,14 L41,6 C41,5.44771525 40.5522847,5 40,5 L43,5 C43.5522847,5 44,5.44771525 44,6 Z" id="Shape" fill="#FDD834"/><path d="M46,22 L4,22 C3.73480519,21.9999434 3.48049273,21.8945494 3.293,21.707 L1.293,19.707 C1.10545063,19.5195073 1.00005664,19.2651948 1,19 L1,3 C1,1.34314575 2.34314575,3.04359188e-16 4,0 L46,0 C47.6568542,1.01453063e-16 49,1.34314575 49,3 L49,19 C48.9999434,19.2651948 48.8945494,19.5195073 48.707,19.707 L46.707,21.707 C46.5195073,21.8945494 46.2651948,21.9999434 46,22 Z M4.414,20 L45.586,20 L47,18.586 L47,3 C47,2.44771525 46.5522847,2 46,2 L4,2 C3.44771525,2 3,2.44771525 3,3 L3,18.586 L4.414,20 Z" id="Shape" fill="#000000"/><path d="M29.26,11 L20.74,11 C19.3960818,10.9969338 18.2521487,10.0209626 18.0374896,8.69429499 C17.8228305,7.36762735 18.6006218,6.08071497 19.875,5.654 L24.133,4.235 C24.6958757,4.04800407 25.3041243,4.04800407 25.867,4.235 L30.126,5.655 C31.4016501,6.0806046 32.1806428,7.36823703 31.965566,8.69570247 C31.7504893,10.0231679 30.6047756,10.9989583 29.26,11 Z M25,6.094 C24.9204376,6.09366884 24.841369,6.10650903 24.766,6.132 L20.506,7.552 C20.1602581,7.66703701 19.9489571,8.01582211 20.0070871,8.37553288 C20.0652172,8.73524366 20.3756226,8.99971983 20.74,9 L29.26,9 C29.6234094,8.99875598 29.9325912,8.73482248 29.9908478,8.37611074 C30.0491044,8.01739899 29.8393382,7.66918575 29.495,7.553 L25.234,6.132 C25.158631,6.10650903 25.0795624,6.09366884 25,6.094 Z" id="Shape" fill="#000000"/><path d="M25,60 L7,60 C6.62097404,60.0001766 6.27442458,59.7860516 6.105,59.447 L1.105,49.447 C1.03580281,49.3081611 0.999855268,49.1551273 1,49 L1,23 C1.00005664,22.7348052 1.10545063,22.4804927 1.293,22.293 L3.293,20.293 C3.68537889,19.9140278 4.30908478,19.9194476 4.69481858,20.3051814 C5.08055237,20.6909152 5.08597221,21.3146211 4.707,21.707 L3,23.414 L3,48.764 L7.618,58 L25,58 C25.5522847,58 26,58.4477153 26,59 C26,59.5522847 25.5522847,60 25,60 Z" id="Shape" fill="#000000"/><path d="M25,34 L7,34 C6.62097404,34.0001766 6.27442458,33.7860516 6.105,33.447 L1.105,23.447 C0.858128717,22.9527051 1.05870515,22.3518713 1.553,22.105 C2.04729485,21.8581287 2.64812872,22.0587051 2.895,22.553 L7.618,32 L25,32 C25.5522847,32 26,32.4477153 26,33 C26,33.5522847 25.5522847,34 25,34 Z" id="Shape" fill="#000000"/><path d="M7,60 C6.44771525,60 6,59.5522847 6,59 L6,33 C6,32.4477153 6.44771525,32 7,32 C7.55228475,32 8,32.4477153 8,33 L8,59 C8,59.5522847 7.55228475,60 7,60 Z" id="Shape" fill="#000000"/><path d="M43,60 L25,60 C24.4477153,60 24,59.5522847 24,59 C24,58.4477153 24.4477153,58 25,58 L42.382,58 L47,48.764 L47,23.414 L45.293,21.707 C44.9140278,21.3146211 44.9194476,20.6909152 45.3051814,20.3051814 C45.6909152,19.9194476 46.3146211,19.9140278 46.707,20.293 L48.707,22.293 C48.8945494,22.4804927 48.9999434,22.7348052 49,23 L49,49 C49.0016999,49.1547301 48.9674687,49.3077438 48.9,49.447 L43.9,59.447 C43.7297741,59.7876694 43.3808256,60.0020788 43,60 Z" id="Shape" fill="#000000"/><path d="M43,34 L25,34 C24.4477153,34 24,33.5522847 24,33 C24,32.4477153 24.4477153,32 25,32 L42.382,32 L47.105,22.553 C47.3518713,22.0587052 47.9527051,21.8581287 48.447,22.105 C48.9412948,22.3518713 49.1418713,22.9527052 48.895,23.447 L43.895,33.447 C43.7255754,33.7860516 43.379026,34.0001766 43,34 Z" id="Shape" fill="#000000"/><path d="M43,60 C42.4477153,60 42,59.5522847 42,59 L42,33 C42,32.4477153 42.4477153,32 43,32 C43.5522847,32 44,32.4477153 44,33 L44,59 C44,59.5522847 43.5522847,60 43,60 Z" id="Shape" fill="#000000"/><path d="M38,53 L24,53 C22.8954305,53 22,52.1045695 22,51 L22,33 C22,32.4477153 22.4477153,32 23,32 L39,32 C39.5522847,32 40,32.4477153 40,33 L40,51 C40,52.1045695 39.1045695,53 38,53 Z M24,34 L24,51 L38,51 L38,34 L24,34 Z" id="Shape" fill="#000000"/><path d="M34,49 L28,49 C26.8954305,49 26,48.1045695 26,47 L26,43 C26,41.8954305 26.8954305,41 28,41 L34,41 C35.1045695,41 36,41.8954305 36,43 L36,47 C36,48.1045695 35.1045695,49 34,49 Z M28,43 L28,47 L34,47 L34,43 L28,43 Z" id="Shape" fill="#000000"/><path d="M34,43 L28,43 C27.4477153,43 27,42.5522847 27,42 L27,38 C27,36.8954305 27.8954305,36 29,36 L33,36 C34.1045695,36 35,36.8954305 35,38 L35,42 C35,42.5522847 34.5522847,43 34,43 Z M29,41 L33,41 L33,38 L29,38 L29,41 Z" id="Shape" fill="#000000"/><path d="M31,49 C30.4477153,49 30,48.5522847 30,48 L30,46 C30,45.4477153 30.4477153,45 31,45 C31.5522847,45 32,45.4477153 32,46 L32,48 C32,48.5522847 31.5522847,49 31,49 Z" id="Shape" fill="#000000"/><path d="M9,26 L8,26 C7.44771525,26 7,25.5522847 7,25 C7,24.4477153 7.44771525,24 8,24 L9,24 C9.55228475,24 10,24.4477153 10,25 C10,25.5522847 9.55228475,26 9,26 Z" id="Shape" fill="#000000"/><path d="M42,26 L13,26 C12.4477153,26 12,25.5522847 12,25 C12,24.4477153 12.4477153,24 13,24 L42,24 C42.5522847,24 43,24.4477153 43,25 C43,25.5522847 42.5522847,26 42,26 Z" id="Shape" fill="#000000"/><path d="M15,55 C13.3431458,55 12,53.6568542 12,52 C12,50.722 13.522,48.38 14.177,47.432 C14.3734761,47.1763668 14.6775854,47.0265464 15,47.0265464 C15.3224146,47.0265464 15.6265239,47.1763668 15.823,47.432 C16.478,48.38 18,50.722 18,52 C18,53.6568542 16.6568542,55 15,55 Z M15,49.854 C14.5545119,50.5115156 14.2169247,51.2359777 14,52 C14,52.5522847 14.4477153,53 15,53 C15.5522847,53 16,52.5522847 16,52 C15.7829949,51.2360077 15.4454134,50.5115579 15,49.854 Z" id="Shape" fill="#000000"/><path d="M15,45 C13.3431458,45 12,43.6568542 12,42 C12,40.722 13.522,38.38 14.177,37.432 C14.3734761,37.1763668 14.6775854,37.0265464 15,37.0265464 C15.3224146,37.0265464 15.6265239,37.1763668 15.823,37.432 C16.478,38.38 18,40.722 18,42 C18,43.6568542 16.6568542,45 15,45 Z M15,39.854 C14.5545119,40.5115156 14.2169247,41.2359777 14,42 C14,42.5522847 14.4477153,43 15,43 C15.5522847,43 16,42.5522847 16,42 C15.7829949,41.2360077 15.4454134,40.5115579 15,39.854 Z" id="Shape" fill="#000000"/><path d="M12,30 L11,30 C10.4477153,30 10,29.5522847 10,29 C10,28.4477153 10.4477153,28 11,28 L12,28 C12.5522847,28 13,28.4477153 13,29 C13,29.5522847 12.5522847,30 12,30 Z" id="Shape" fill="#000000"/><path d="M39,30 L16,30 C15.4477153,30 15,29.5522847 15,29 C15,28.4477153 15.4477153,28 16,28 L39,28 C39.5522847,28 40,28.4477153 40,29 C40,29.5522847 39.5522847,30 39,30 Z" id="Shape" fill="#000000"/><path d="M9,12 C6.790861,12 5,10.209139 5,8 C5,5.790861 6.790861,4 9,4 C11.209139,4 13,5.790861 13,8 C13,9.06086596 12.5785726,10.0782816 11.8284271,10.8284271 C11.0782816,11.5785726 10.060866,12 9,12 Z M9,6 C7.8954305,6 7,6.8954305 7,8 C7,9.1045695 7.8954305,10 9,10 C10.1045695,10 11,9.1045695 11,8 C11,6.8954305 10.1045695,6 9,6 Z" id="Shape" fill="#000000"/><path d="M43,16 L38,16 C36.8954305,16 36,15.1045695 36,14 L36,6 C36,4.8954305 36.8954305,4 38,4 L43,4 C44.1045695,4 45,4.8954305 45,6 L45,14 C45,15.1045695 44.1045695,16 43,16 Z M38,6 L38,14 L43,14 L43,6 L38,6 Z" id="Shape" fill="#000000"/></g></g></svg>
