<svg id="Capa_1" enable-background="new 0 0 512 512" height="512" viewBox="0 0 512 512" width="512" xmlns="http://www.w3.org/2000/svg"><g><g><path d="m226 422h-120c-8.28 0-15 6.72-15 15v60c0 8.28 6.72 15 15 15h120c8.28 0 15-6.72 15-15v-60c0-8.28-6.72-15-15-15z" fill="#766e6e"/></g><path d="m241 437v60c0 8.28-6.72 15-15 15h-60v-90h60c8.28 0 15 6.72 15 15z" fill="#5b5555"/><g><path d="m300.95 76.24-24.91 300.76-110.04 19-110.03-19-24.92-300.76c-.34-4.18 1.07-8.31 3.91-11.4 2.84-3.08 6.85-4.84 11.04-4.84h240c4.19 0 8.2 1.76 11.04 4.84 2.84 3.09 4.25 7.22 3.91 11.4z" fill="#fff7cc"/><path d="m300.95 76.24-24.91 300.76-110.04 19v-336h120c4.19 0 8.2 1.76 11.04 4.84 2.84 3.09 4.25 7.22 3.91 11.4z" fill="#ffe6b3"/><path d="m276.04 377-2.8 33.73c-1.93 23.14-21.62 41.27-44.84 41.27h-124.8c-23.22 0-42.91-18.13-44.84-41.26l-2.79-33.74z" fill="#b9dd39"/><path d="m276.04 377-2.8 33.73c-1.93 23.14-21.62 41.27-44.84 41.27h-62.4v-75z" fill="#90cc1c"/></g><path d="m301 15v60h-270v-60c0-8.28 6.72-15 15-15h240c8.28 0 15 6.72 15 15z" fill="#b9dd39"/><path d="m301 15v60h-135v-75h120c8.28 0 15 6.72 15 15z" fill="#90cc1c"/><g><path d="m166 212c-25.27 0-45 27.72-45 52.5 0 18.13 11.82 37.5 45 37.5s45-19.37 45-37.5c0-24.81-19.74-52.5-45-52.5z" fill="#766e6e"/></g><path d="m211 264.5c0 18.13-11.82 37.5-45 37.5v-90c25.26 0 45 27.69 45 52.5z" fill="#5b5555"/><g><circle cx="166" cy="167" fill="#766e6e" r="15"/></g><path d="m181 167c0 8.28-6.72 15-15 15v-30c8.28 0 15 6.72 15 15z" fill="#5b5555"/><g><circle cx="211" cy="197" fill="#5b5555" r="15"/></g><g><circle cx="121" cy="197" fill="#766e6e" r="15"/></g><g><path d="m442.66 422.49c5.3-8.94 8.34-19.37 8.34-30.49 0-33.08-26.92-60-60-60h-15c-8.28 0-15 6.72-15 15 0 8.27-6.73 15-15 15-24.81 0-45 20.19-45 45 0 5.85 1.12 11.45 3.16 16.58-19.08 5.21-33.16 22.7-33.16 43.42 0 24.81 20.19 45 45 45h120c24.81 0 45-20.19 45-45 0-22.55-16.67-41.28-38.34-44.51z" fill="#fed2a4"/></g><path d="m481 467c0 24.81-20.19 45-45 45h-60v-180h15c33.08 0 60 26.92 60 60 0 11.12-3.04 21.55-8.34 30.49 21.67 3.23 38.34 21.96 38.34 44.51z" fill="#ffbd86"/></g></svg>