<svg height="511pt" viewBox="-53 1 511 511.99964" width="511pt" xmlns="http://www.w3.org/2000/svg"><path d="m90.324219 89.824219c-4.960938 0-8.980469-4.019531-8.980469-8.980469v-44.914062c0-4.960938 4.019531-8.980469 8.980469-8.980469 4.960937 0 8.980469 4.019531 8.980469 8.980469v44.914062c.003906 4.960938-4.019532 8.980469-8.980469 8.980469zm0 0" fill="#c3c3c3"/><path d="m189.132812 62.878906c-2.382812-.003906-4.667968-.949218-6.351562-2.632812l-24.316406-24.316406h-41.191406c-4.960938 0-8.984376-4.023438-8.984376-8.980469 0-4.960938 4.023438-8.984375 8.984376-8.984375h44.910156c2.382812 0 4.667968.949218 6.351562 2.632812l26.945313 26.945313c3.507812 3.507812 3.507812 9.195312 0 12.703125-1.683594 1.683594-3.96875 2.628906-6.347657 2.632812zm0 0" fill="#c3c3c3"/><g fill="#e4e4e2"><path d="m81.34375 8.980469h17.964844c9.921875 0 17.964844 8.042969 17.964844 17.96875v17.964843h-53.894532v-17.964843c-.003906-9.921875 8.042969-17.96875 17.964844-17.96875zm0 0"/><path d="m63.375 71.859375h53.898438v62.878906h-53.898438zm0 0"/><path d="m278.957031 251.507812h-35.929687v-35.929687c0-4.960937 4.019531-8.980469 8.980468-8.980469h17.964844c4.960938 0 8.984375 4.019532 8.984375 8.980469zm0 0"/><path d="m386.746094 188.632812h-35.929688v-62.878906h35.929688c4.960937 0 8.980468 4.023438 8.980468 8.984375v44.910157c0 4.960937-4.019531 8.984374-8.980468 8.984374zm0 0"/></g><path d="m171.167969 503.019531h-161.6875v-305.40625c0-39.6875 32.175781-71.859375 71.863281-71.859375h17.964844c39.683594 0 71.859375 32.171875 71.859375 71.859375zm0 0" fill="#ffb1b5"/><path d="m9.480469 233.542969h161.6875v107.789062h-161.6875zm0 0" fill="#eea5a9"/><path d="m359.796875 503.019531h-134.734375l-17.964844-152.703125h170.664063zm0 0" fill="#d1763e"/><path d="m296.921875 350.316406h-71.859375v-62.878906l17.964844-44.910156h35.929687l17.964844 44.910156zm0 0" fill="#85bc94"/><path d="m225.0625 287.4375h71.859375v62.878906h-71.859375zm0 0" fill="#99d8aa"/><path d="m368.78125 350.316406h-35.929688v-80.84375l-8.984374-44.910156v-98.808594c0-4.960937 4.023437-8.980468 8.984374-8.980468h17.964844c4.960938 0 8.980469 4.019531 8.980469 8.980468v98.808594l8.984375 44.910156zm0 0" fill="#8aced8"/><path d="m99.308594 449.121094h179.648437v53.898437h-179.648437zm0 0" fill="#fd9226"/><path d="m139.726562 386.246094h89.824219c17.363281 0 31.441407 14.074218 31.441407 31.4375 0 17.363281-14.078126 31.4375-31.441407 31.4375h-89.824219c-17.363281 0-31.4375-14.074219-31.4375-31.4375 0-17.363282 14.074219-31.4375 31.4375-31.4375zm0 0" fill="#fbedbf"/><path d="m.5 197.613281v305.402344c0 4.960937 4.023438 8.984375 8.980469 8.984375h89.082031c.132812 0 .242188-.070312.367188-.070312s.242187.070312.375.070312h179.652343c.632813-.054688 1.261719-.183594 1.867188-.378906.609375.195312 1.238281.320312 1.878906.378906h77.09375c4.554687 0 8.386719-3.410156 8.921875-7.933594l17.964844-152.699218c.578125-4.929688-2.945313-9.390626-7.871094-9.972657-.347656-.042969-.699219-.0625-1.050781-.0625v-71.859375c.003906-.601562-.058594-1.203125-.179688-1.796875l-8.800781-44.011719v-26.050781h17.964844c9.921875 0 17.964844-8.042969 17.964844-17.964843v-44.910157c0-9.921875-8.042969-17.964843-17.964844-17.964843h-20.460938c-3.183594-5.542969-9.082031-8.964844-15.46875-8.984376h-17.964844c-9.921874 0-17.964843 8.042969-17.964843 17.964844v98.808594c0 .601562.058593 1.203125.179687 1.796875l8.800782 44.011719v70.960937h-17.964844v-53.894531c0-1.140625-.214844-2.269531-.636719-3.332031l-.0625-.160157-17.265625-43.152343v-25.214844c0-9.921875-8.042969-17.964844-17.964844-17.964844h-17.964844c-9.921874 0-17.964843 8.042969-17.964843 17.964844v25.214844l-17.253907 43.117187-.0625.160156c-.433593 1.070313-.652343 2.214844-.648437 3.367188v53.894531h-8.980469c-4.964844.003907-8.984375 4.023438-8.984375 8.984375 0 .351563.023438.703125.0625 1.050782l3.046875 25.894531h-21.074218v-179.648438c-.054688-34.21875-21.636719-64.703125-53.894532-76.125v-49.628906c0-4.960937-4.023437-8.980469-8.984375-8.980469h-17.964843v-8.984375h17.964843c4.960938 0 8.984375-4.023437 8.984375-8.980469v-8.984374h32.210938l24.316406 24.316406c3.566406 3.445312 9.253906 3.347656 12.699219-.222656 3.363281-3.480469 3.363281-8.996094 0-12.480469l-26.945313-26.945313c-1.683594-1.683594-3.96875-2.632812-6.351562-2.632812h-37.582032c-3.792968-10.726563-13.914062-17.917969-25.292968-17.964844h-17.964844c-14.882812 0-26.949219 12.066406-26.949219 26.949219v17.964843c0 4.960938 4.023438 8.980469 8.980469 8.980469h17.96875v8.984375h-17.96875c-4.960938 0-8.980469 4.019532-8.980469 8.980469v49.628906c-32.257812 11.421875-53.839843 41.90625-53.894531 76.125zm368.28125-62.875h17.964844v44.910157h-17.964844zm-350.316406 107.789063h143.71875v89.824218h-143.71875zm80.84375 197.613281c-4.960938 0-8.984375 4.019531-8.984375 8.980469v44.914062h-71.859375v-143.71875h143.71875v26.945313h-22.457032c-22.324218.019531-40.40625 18.132812-40.386718 40.457031.007812 7.980469 2.375 15.785156 6.8125 22.421875zm170.664062 53.894531h-161.683594v-35.929687h161.683594zm62.878906-368.28125h17.964844v98.808594c0 .601562.058594 1.203125.179688 1.796875l8.800781 44.011719v70.960937h-17.964844v-71.859375c0-.601562-.058593-1.203125-.179687-1.796875l-8.800782-44.011719zm-80.84375 89.824219h17.964844v17.964844h-17.964844zm-2.902343 35.929687h23.769531l10.777344 26.949219h-45.324219zm-15.0625 44.914063h53.894531v44.910156h-53.894531zm133.613281 62.875-15.851562 134.738281h-63.867188v-44.914062c0-4.960938-4.019531-8.980469-8.980469-8.980469h-15.828125c12.402344-18.5625 7.410156-43.664063-11.152344-56.066406-6.636718-4.433594-14.441406-6.804688-22.425781-6.8125h-10.238281l-2.109375-17.964844zm-138.105469 35.929687c12.402344 0 22.457031 10.054688 22.457031 22.457032s-10.054687 22.457031-22.457031 22.457031h-89.824219c-12.402343 0-22.453124-10.054687-22.453124-22.457031s10.050781-22.457032 22.453124-22.457032zm-157.191406-359.296874v-8.980469c0-4.960938 4.023437-8.984375 8.984375-8.984375h17.964844c4.960937 0 8.980468 4.023437 8.980468 8.984375v8.980469zm0 44.914062h35.929687v35.929688h-35.929687zm8.984375 53.894531h17.964844c34.707031.042969 62.832031 28.167969 62.875 62.875v26.949219h-143.71875v-26.949219c.042968-34.707031 28.167968-62.832031 62.878906-62.875zm0 0"/></svg>