<svg id="Layer_1" height="512" viewBox="0 0 128 128" width="512" xmlns="http://www.w3.org/2000/svg" data-name="Layer 1"><path d="m70.677 13.044a21.2 21.2 0 0 0 -21.177 21.177v25.467a1.75 1.75 0 0 0 3.5 0v-25.467a17.677 17.677 0 1 1 35.354 0v25.467a1.75 1.75 0 0 0 3.5 0v-25.467a21.2 21.2 0 0 0 -21.177-21.177z" fill="#fc634a"/><path d="m47 105.894h-32.206v-5.331a42.041 42.041 0 0 1 32.206-40.875z" fill="#c4c9f3"/><path d="m47 59.687h8.5v46.206h-8.5z" fill="#2d8bfb"/><circle cx="44.315" cy="105.894" fill="#28edd1" r="7.313"/><path d="m110.206 102.785h-40.206l-3 10.421h46.206z" fill="#28edd1"/><path d="m100.103 102.785h-20l5-16.118h10z" fill="#c4c9f3"/><path d="m87.436 59.687h5.333v26.979h-5.333z" fill="#2d8bfb"/></svg>