<svg height="480pt" viewBox="0 0 480 480" width="480pt" xmlns="http://www.w3.org/2000/svg"><path d="m408 152v288c0 17.671875-14.328125 32-32 32h-272c-17.671875 0-32-14.328125-32-32v-288c0-17.671875 14.328125-32 32-32h16v40c.011719 57.023438 40.132812 106.171875 96 117.601562v26.398438c0 13.253906 10.746094 24 24 24s24-10.746094 24-24v-26.398438c55.867188-11.429687 95.988281-60.578124 96-117.601562v-40h16c17.671875 0 32 14.328125 32 32zm0 0" fill="#254b6f"/><path d="m344 88h-208c-8.835938 0-16 7.164062-16 16v56c.011719 57.023438 40.132812 106.171875 96 117.601562v-21.601562c0-13.253906 10.746094-24 24-24s24 10.746094 24 24v21.601562c55.867188-11.429687 95.988281-60.578124 96-117.601562v-56c0-8.835938-7.164062-16-16-16zm0 0" fill="#efeadd"/><path d="m440 280h-32v160h32c17.671875 0 32-14.328125 32-32v-96c0-17.671875-14.328125-32-32-32zm0 0" fill="#1a6fb0"/><path d="m40 280c-17.671875 0-32 14.328125-32 32v96c0 17.671875 14.328125 32 32 32h32v-160zm0 0" fill="#1a6fb0"/><path d="m240 232c-13.253906 0-24 10.746094-24 24v48c0 13.253906 10.746094 24 24 24s24-10.746094 24-24v-48c0-13.253906-10.746094-24-24-24zm0 0" fill="#ee2820"/><path d="m128 408c0 17.671875 14.328125 32 32 32h160c17.671875 0 32-14.328125 32-32v-48h-224zm0 0" fill="#ffcd00"/><path d="m72 296.078125v143.921875c0 17.671875 14.328125 32 32 32h157.121094c-87.105469-1.695312-189.121094-79.703125-189.121094-175.921875zm0 0" fill="#214364"/><path d="m408 280h16v160h-16zm0 0" fill="#17649e"/><path d="m56 280h16v160h-16zm0 0" fill="#17649e"/><g fill="#231f20"><path d="m440 272h-24v-120c-.027344-22.082031-17.917969-39.972656-40-40h-8v-8c0-13.253906-10.746094-24-24-24h-32v-8c0-39.765625-32.234375-72-72-72s-72 32.234375-72 72v8h-32c-13.253906 0-24 10.746094-24 24v8h-8c-22.082031.027344-39.972656 17.917969-40 40v120h-24c-22.082031.027344-39.9726562 17.917969-40 40v96c.0273438 22.082031 17.917969 39.972656 40 40h24.800781c3.828125 18.613281 20.199219 31.976562 39.199219 32h272c19-.023438 35.371094-13.386719 39.199219-32h24.800781c22.082031-.027344 39.972656-17.917969 40-40v-96c-.027344-22.082031-17.917969-39.972656-40-40zm-256-200c0-30.929688 25.070312-56 56-56s56 25.070312 56 56v8h-112zm-56 32c0-4.417969 3.582031-8 8-8h208c4.417969 0 8 3.582031 8 8v56c-.105469 49.503906-32.59375 93.101562-80 107.359375v-11.359375c0-17.671875-14.328125-32-32-32s-32 14.328125-32 32v11.359375c-47.40625-14.257813-79.894531-57.855469-80-107.359375zm128 152v48c0 8.835938-7.164062 16-16 16s-16-7.164062-16-16v-48c0-8.835938 7.164062-16 16-16s16 7.164062 16 16zm-240 152v-96c0-13.253906 10.746094-24 24-24h24v144h-24c-13.253906 0-24-10.746094-24-24zm360 56h-272c-13.253906 0-24-10.746094-24-24v-288c0-13.253906 10.746094-24 24-24h8v32c.152344 58.296875 39.582031 109.164062 96 123.847656v20.152344c0 17.671875 14.328125 32 32 32s32-14.328125 32-32v-20.152344c56.417969-14.683594 95.847656-65.550781 96-123.847656v-32h8c13.253906 0 24 10.746094 24 24v288c0 13.253906-10.746094 24-24 24zm88-56c0 13.253906-10.746094 24-24 24h-24v-144h24c13.253906 0 24 10.746094 24 24zm0 0"/><path d="m200 112h16v16h-16zm0 0"/><path d="m232 112h16v16h-16zm0 0"/><path d="m264 112h16v16h-16zm0 0"/><path d="m120 408c.027344 22.082031 17.917969 39.972656 40 40h160c22.082031-.027344 39.972656-17.917969 40-40v-56h-240zm16-40h208v40c0 13.253906-10.746094 24-24 24h-160c-13.253906 0-24-10.746094-24-24zm0 0"/></g></svg>