<svg height="512" viewBox="0 0 64 64" width="512" xmlns="http://www.w3.org/2000/svg"><g id="_24_Hr" data-name="24 Hr"><path d="m5 54h56a0 0 0 0 1 0 0v2a2 2 0 0 1 -2 2h-52a2 2 0 0 1 -2-2v-2a0 0 0 0 1 0 0z" fill="#d80027"/><path d="m3 48h40v6h-40z" fill="#ffcd00"/><path d="m43 34h8a8 8 0 0 1 8 8v12a0 0 0 0 1 0 0h-16a0 0 0 0 1 0 0v-20a0 0 0 0 1 0 0z" fill="#006df0"/><path d="m51 34h-4v9a2 2 0 0 0 2 2h10v-3a8 8 0 0 0 -8-8z" fill="#d1d3d4"/><circle cx="51" cy="56" fill="#6d6e71" r="5"/><circle cx="17" cy="56" fill="#6d6e71" r="5"/><path d="m3 26h40v22h-40z" fill="#ffc477"/><circle cx="23" cy="26" fill="#7ed63e" r="12"/><path d="m43 26h-3v9a8.024 8.024 0 0 1 -8 8h-29v5h40z" fill="#ffb655"/><g fill="#231f20"><path d="m61 53h-1v-11a9.01 9.01 0 0 0 -9-9h-7v-7a1 1 0 0 0 -1-1h-5a1 1 0 0 0 0 2h4v20h-38v-20h4a1 1 0 0 0 0-2h-5a1 1 0 0 0 -1 1v28a1 1 0 0 0 1 1h1v1a3 3 0 0 0 3 3h4.812a5.986 5.986 0 0 0 10.376 0h23.624a5.986 5.986 0 0 0 10.376 0h2.812a3 3 0 0 0 3-3v-2a1 1 0 0 0 -1-1zm-3-11v2h-9a1 1 0 0 1 -1-1v-8h3a7.008 7.008 0 0 1 7 7zm-12-7v8a3 3 0 0 0 3 3h9v7h-1.812a5.986 5.986 0 0 0 -10.376 0h-1.812v-18zm-4 14v4h-19.812a5.986 5.986 0 0 0 -10.376 0h-7.812v-4zm-35 8a1 1 0 0 1 -1-1v-1h5.09a5.6 5.6 0 0 0 0 2zm10 3a4 4 0 1 1 4-4 4 4 0 0 1 -4 4zm5.91-3a5.6 5.6 0 0 0 0-2h22.18a5.6 5.6 0 0 0 0 2zm28.09 3a4 4 0 1 1 4-4 4 4 0 0 1 -4 4zm9-4a1 1 0 0 1 -1 1h-2.09a5.6 5.6 0 0 0 0-2h3.09z"/><path d="m19.447 26.658-1.789.895a2.984 2.984 0 0 0 -1.658 2.683v.764a1 1 0 0 0 1 1h4a1 1 0 0 0 0-2h-2.973a1 1 0 0 1 .526-.658l1.789-.895a2.984 2.984 0 0 0 1.658-2.683v-.764a3 3 0 0 0 -6 0 1 1 0 0 0 2 0 1 1 0 0 1 2 0v.764a.994.994 0 0 1 -.553.894z"/><path d="m28.341 22.06a1 1 0 0 0 -1.11.3l-5 6a1 1 0 0 0 .769 1.64h4v1a1 1 0 0 0 2 0v-1h1a1 1 0 0 0 0-2h-1v-5a1 1 0 0 0 -.659-.94zm-1.341 5.94h-1.865l1.865-2.238z"/><path d="m16.5 37.258a13 13 0 1 0 -3.061-20.058l-.127-2.093a1 1 0 1 0 -2 .121l.294 4.83c0 .029.02.053.024.081a.992.992 0 0 0 .071.246 1.164 1.164 0 0 0 .069.142.973.973 0 0 0 .171.192c.03.028.046.066.079.09.016.011.036.015.052.026s.019.021.032.028.049.013.072.024a1.029 1.029 0 0 0 .24.081.912.912 0 0 0 .115.017c.025 0 .048.012.073.012a.99.99 0 0 0 .259-.034l4.83-1.294a1 1 0 0 0 -.517-1.932l-1.991.533a10.971 10.971 0 1 1 -3 5.679 1 1 0 1 0 -1.964-.372 13.013 13.013 0 0 0 6.279 13.681z"/></g></g></svg>